<?xml version="1.0" encoding="utf-8"?>
<!-- Generator: Adobe Illustrator 23.0.1, SVG Export Plug-In . SVG Version: 6.00 Build 0)  -->
<svg version="1.1"
	 id="svg2" inkscape:version="0.48.5 r10040" sodipodi:docname="EuroSuecia.svg" xmlns:cc="http://creativecommons.org/ns#" xmlns:dc="http://purl.org/dc/elements/1.1/" xmlns:inkscape="http://www.inkscape.org/namespaces/inkscape" xmlns:rdf="http://www.w3.org/1999/02/22-rdf-syntax-ns#" xmlns:sodipodi="http://sodipodi.sourceforge.net/DTD/sodipodi-0.dtd" xmlns:svg="http://www.w3.org/2000/svg"
	 xmlns="http://www.w3.org/2000/svg" xmlns:xlink="http://www.w3.org/1999/xlink" x="0px" y="0px" width="238.357px" height="250px"
	 viewBox="0 0 238.357 250" enable-background="new 0 0 238.357 250" xml:space="preserve">
<g>
	<g>
		<path fill="#FECC00" d="M171.237,16.817c-31.03,0-56.279,36.254-58.891,48.143c-2.61,11.889-10.733,6.092-12.181-1.157
			c-1.449-7.255-10.313-23.638-31.774-23.638c-15.367,0-43.588,16.972-44.192,71.197c-0.723,65.255,72.949,95.195,83.194,115.91
			c11.508-34.2,98.931-88.36,101.254-156.219C209.5,46.124,199.658,16.817,171.237,16.817z"/>
		<path fill="#006AA7" d="M171.237,16.817c-22.416,0-41.811,18.918-51.838,33.904v51.894l85.51-9.371
			c2.154-7.221,3.479-14.621,3.738-22.192C209.5,46.124,199.658,16.817,171.237,16.817z"/>
		<path fill="#006AA7" d="M82.372,203.523v-59.838l-49.46,5.598C44.489,172.786,65.445,190.018,82.372,203.523z"/>
		<path fill="#006AA7" d="M119.399,207.701c16.564-20.547,45.207-45.849,65.588-75.113l-65.588,7.188V207.701z"/>
		<path fill="#006AA7" d="M82.372,42.918c-3.908-1.693-8.535-2.754-13.981-2.754c-15.367,0-43.588,16.972-44.192,71.197
			c-0.007,0.587,0.006,1.164,0.012,1.745l58.161-6.583V42.918z"/>
	</g>
	<path d="M181.388,0c-25.521,0-55.703,18.849-73.971,50.172c-4.931-11.312-22.493-23.639-43.372-23.639
		C47.223,26.533,0,47.559,0,115.422c0,87.583,88.61,105.572,106.523,132.79c1.231,1.874,5.196,3.288,6.708-1.187
		c14.293-42.183,125.126-89.842,125.126-175.684C238.357,23.2,206.909,0,181.388,0z M24.199,111.361
		c0.605-54.225,28.825-71.197,44.192-71.197c21.461,0,30.326,16.383,31.774,23.638c1.448,7.25,9.571,13.046,12.181,1.157
		c2.612-11.889,27.861-48.143,58.891-48.143c28.42,0,38.262,29.307,37.41,54.235c-2.324,67.859-89.746,122.019-101.255,156.219
		C97.148,206.556,23.477,176.617,24.199,111.361z"/>
</g>
</svg>
